<mxfile host="app.diagrams.net" agent="Mozilla/5.0 (Windows NT 10.0; Win64; x64) AppleWebKit/537.36 (KHTML, like Gecko) Chrome/131.0.0.0 Safari/537.36" version="25.0.3">
  <diagram name="หน้า-1" id="1Ss-MZV7OvnqPIgKUNJa">
    <mxGraphModel dx="1034" dy="446" grid="1" gridSize="10" guides="1" tooltips="1" connect="1" arrows="1" fold="1" page="1" pageScale="1" pageWidth="827" pageHeight="1169" math="0" shadow="0">
      <root>
        <mxCell id="0" />
        <mxCell id="1" parent="0" />
        <mxCell id="ebJpV6IyldLX445FQ9T2-3" value="" style="edgeStyle=orthogonalEdgeStyle;rounded=0;orthogonalLoop=1;jettySize=auto;html=1;" edge="1" parent="1" source="ebJpV6IyldLX445FQ9T2-1" target="ebJpV6IyldLX445FQ9T2-2">
          <mxGeometry relative="1" as="geometry" />
        </mxCell>
        <mxCell id="ebJpV6IyldLX445FQ9T2-1" value="start" style="strokeWidth=2;html=1;shape=mxgraph.flowchart.start_1;whiteSpace=wrap;" vertex="1" parent="1">
          <mxGeometry x="360" y="100" width="100" height="60" as="geometry" />
        </mxCell>
        <mxCell id="ebJpV6IyldLX445FQ9T2-5" value="" style="edgeStyle=orthogonalEdgeStyle;rounded=0;orthogonalLoop=1;jettySize=auto;html=1;" edge="1" parent="1" source="ebJpV6IyldLX445FQ9T2-2" target="ebJpV6IyldLX445FQ9T2-4">
          <mxGeometry relative="1" as="geometry" />
        </mxCell>
        <mxCell id="ebJpV6IyldLX445FQ9T2-2" value="สร้างตัวแปร&amp;nbsp;&lt;div&gt;number&amp;nbsp;&lt;/div&gt;&lt;div&gt;i&amp;nbsp;&lt;/div&gt;&lt;div&gt;j&amp;nbsp;&lt;/div&gt;&lt;div&gt;prime_number&lt;/div&gt;" style="whiteSpace=wrap;html=1;strokeWidth=2;" vertex="1" parent="1">
          <mxGeometry x="335" y="240" width="150" height="110" as="geometry" />
        </mxCell>
        <mxCell id="ebJpV6IyldLX445FQ9T2-7" value="" style="edgeStyle=orthogonalEdgeStyle;rounded=0;orthogonalLoop=1;jettySize=auto;html=1;" edge="1" parent="1" source="ebJpV6IyldLX445FQ9T2-4" target="ebJpV6IyldLX445FQ9T2-6">
          <mxGeometry relative="1" as="geometry" />
        </mxCell>
        <mxCell id="ebJpV6IyldLX445FQ9T2-4" value="แสดงคำว่า Enter Number :" style="shape=parallelogram;perimeter=parallelogramPerimeter;whiteSpace=wrap;html=1;fixedSize=1;strokeWidth=2;" vertex="1" parent="1">
          <mxGeometry x="320" y="460" width="180" height="60" as="geometry" />
        </mxCell>
        <mxCell id="ebJpV6IyldLX445FQ9T2-9" value="" style="edgeStyle=orthogonalEdgeStyle;rounded=0;orthogonalLoop=1;jettySize=auto;html=1;" edge="1" parent="1" source="ebJpV6IyldLX445FQ9T2-6" target="ebJpV6IyldLX445FQ9T2-8">
          <mxGeometry relative="1" as="geometry" />
        </mxCell>
        <mxCell id="ebJpV6IyldLX445FQ9T2-6" value="รับค่าจากผุู้ใช้" style="shape=parallelogram;perimeter=parallelogramPerimeter;whiteSpace=wrap;html=1;fixedSize=1;strokeWidth=2;" vertex="1" parent="1">
          <mxGeometry x="350" y="600" width="120" height="60" as="geometry" />
        </mxCell>
        <mxCell id="ebJpV6IyldLX445FQ9T2-11" value="" style="edgeStyle=orthogonalEdgeStyle;rounded=0;orthogonalLoop=1;jettySize=auto;html=1;" edge="1" parent="1" source="ebJpV6IyldLX445FQ9T2-8" target="ebJpV6IyldLX445FQ9T2-10">
          <mxGeometry relative="1" as="geometry" />
        </mxCell>
        <mxCell id="ebJpV6IyldLX445FQ9T2-8" value="i = number" style="whiteSpace=wrap;html=1;strokeWidth=2;" vertex="1" parent="1">
          <mxGeometry x="350" y="740" width="120" height="60" as="geometry" />
        </mxCell>
        <mxCell id="ebJpV6IyldLX445FQ9T2-13" value="" style="edgeStyle=orthogonalEdgeStyle;rounded=0;orthogonalLoop=1;jettySize=auto;html=1;" edge="1" parent="1" source="ebJpV6IyldLX445FQ9T2-10" target="ebJpV6IyldLX445FQ9T2-12">
          <mxGeometry relative="1" as="geometry" />
        </mxCell>
        <mxCell id="ebJpV6IyldLX445FQ9T2-10" value="prime_number = 1" style="whiteSpace=wrap;html=1;strokeWidth=2;" vertex="1" parent="1">
          <mxGeometry x="350" y="880" width="120" height="60" as="geometry" />
        </mxCell>
        <mxCell id="ebJpV6IyldLX445FQ9T2-15" value="" style="edgeStyle=orthogonalEdgeStyle;rounded=0;orthogonalLoop=1;jettySize=auto;html=1;" edge="1" parent="1" source="ebJpV6IyldLX445FQ9T2-12" target="ebJpV6IyldLX445FQ9T2-14">
          <mxGeometry relative="1" as="geometry" />
        </mxCell>
        <mxCell id="ebJpV6IyldLX445FQ9T2-12" value="j = 2" style="whiteSpace=wrap;html=1;strokeWidth=2;" vertex="1" parent="1">
          <mxGeometry x="350" y="1020" width="120" height="60" as="geometry" />
        </mxCell>
        <mxCell id="ebJpV6IyldLX445FQ9T2-17" value="" style="edgeStyle=orthogonalEdgeStyle;rounded=0;orthogonalLoop=1;jettySize=auto;html=1;" edge="1" parent="1" source="ebJpV6IyldLX445FQ9T2-14" target="ebJpV6IyldLX445FQ9T2-16">
          <mxGeometry relative="1" as="geometry" />
        </mxCell>
        <mxCell id="ebJpV6IyldLX445FQ9T2-22" style="edgeStyle=orthogonalEdgeStyle;rounded=0;orthogonalLoop=1;jettySize=auto;html=1;exitX=0;exitY=0.5;exitDx=0;exitDy=0;entryX=0;entryY=0.5;entryDx=0;entryDy=0;" edge="1" parent="1" source="ebJpV6IyldLX445FQ9T2-14" target="ebJpV6IyldLX445FQ9T2-19">
          <mxGeometry relative="1" as="geometry">
            <Array as="points">
              <mxPoint x="90" y="1190" />
              <mxPoint x="90" y="1510" />
            </Array>
          </mxGeometry>
        </mxCell>
        <mxCell id="ebJpV6IyldLX445FQ9T2-14" value="j * j &amp;lt;= i" style="rhombus;whiteSpace=wrap;html=1;strokeWidth=2;" vertex="1" parent="1">
          <mxGeometry x="370" y="1150" width="80" height="80" as="geometry" />
        </mxCell>
        <mxCell id="ebJpV6IyldLX445FQ9T2-20" value="" style="edgeStyle=orthogonalEdgeStyle;rounded=0;orthogonalLoop=1;jettySize=auto;html=1;" edge="1" parent="1" source="ebJpV6IyldLX445FQ9T2-16" target="ebJpV6IyldLX445FQ9T2-19">
          <mxGeometry relative="1" as="geometry" />
        </mxCell>
        <mxCell id="ebJpV6IyldLX445FQ9T2-25" value="" style="edgeStyle=orthogonalEdgeStyle;rounded=0;orthogonalLoop=1;jettySize=auto;html=1;" edge="1" parent="1" source="ebJpV6IyldLX445FQ9T2-16" target="ebJpV6IyldLX445FQ9T2-24">
          <mxGeometry relative="1" as="geometry" />
        </mxCell>
        <mxCell id="ebJpV6IyldLX445FQ9T2-16" value="i % ij == 0" style="rhombus;whiteSpace=wrap;html=1;strokeWidth=2;" vertex="1" parent="1">
          <mxGeometry x="370" y="1310" width="80" height="80" as="geometry" />
        </mxCell>
        <mxCell id="ebJpV6IyldLX445FQ9T2-18" value="T" style="text;html=1;align=center;verticalAlign=middle;resizable=0;points=[];autosize=1;strokeColor=none;fillColor=none;" vertex="1" parent="1">
          <mxGeometry x="415" y="1218" width="30" height="30" as="geometry" />
        </mxCell>
        <mxCell id="ebJpV6IyldLX445FQ9T2-31" value="" style="edgeStyle=orthogonalEdgeStyle;rounded=0;orthogonalLoop=1;jettySize=auto;html=1;" edge="1" parent="1" source="ebJpV6IyldLX445FQ9T2-19" target="ebJpV6IyldLX445FQ9T2-30">
          <mxGeometry relative="1" as="geometry" />
        </mxCell>
        <mxCell id="ebJpV6IyldLX445FQ9T2-19" value="prime_number = 0" style="whiteSpace=wrap;html=1;strokeWidth=2;" vertex="1" parent="1">
          <mxGeometry x="350" y="1480" width="120" height="60" as="geometry" />
        </mxCell>
        <mxCell id="ebJpV6IyldLX445FQ9T2-21" value="T" style="text;html=1;align=center;verticalAlign=middle;resizable=0;points=[];autosize=1;strokeColor=none;fillColor=none;" vertex="1" parent="1">
          <mxGeometry x="415" y="1388" width="30" height="30" as="geometry" />
        </mxCell>
        <mxCell id="ebJpV6IyldLX445FQ9T2-23" value="F" style="text;html=1;align=center;verticalAlign=middle;resizable=0;points=[];autosize=1;strokeColor=none;fillColor=none;" vertex="1" parent="1">
          <mxGeometry x="335" y="1148" width="30" height="30" as="geometry" />
        </mxCell>
        <mxCell id="ebJpV6IyldLX445FQ9T2-29" style="edgeStyle=orthogonalEdgeStyle;rounded=0;orthogonalLoop=1;jettySize=auto;html=1;exitX=0.5;exitY=0;exitDx=0;exitDy=0;" edge="1" parent="1" source="ebJpV6IyldLX445FQ9T2-24" target="ebJpV6IyldLX445FQ9T2-27">
          <mxGeometry relative="1" as="geometry">
            <Array as="points">
              <mxPoint x="630" y="980" />
            </Array>
          </mxGeometry>
        </mxCell>
        <mxCell id="ebJpV6IyldLX445FQ9T2-24" value="j ++" style="whiteSpace=wrap;html=1;strokeWidth=2;" vertex="1" parent="1">
          <mxGeometry x="570" y="1320" width="120" height="60" as="geometry" />
        </mxCell>
        <mxCell id="ebJpV6IyldLX445FQ9T2-26" value="F" style="text;html=1;align=center;verticalAlign=middle;resizable=0;points=[];autosize=1;strokeColor=none;fillColor=none;" vertex="1" parent="1">
          <mxGeometry x="445" y="1310" width="30" height="30" as="geometry" />
        </mxCell>
        <mxCell id="ebJpV6IyldLX445FQ9T2-27" value="" style="shape=waypoint;sketch=0;fillStyle=solid;size=6;pointerEvents=1;points=[];fillColor=none;resizable=0;rotatable=0;perimeter=centerPerimeter;snapToPoint=1;" vertex="1" parent="1">
          <mxGeometry x="400" y="970" width="20" height="20" as="geometry" />
        </mxCell>
        <mxCell id="ebJpV6IyldLX445FQ9T2-33" value="" style="edgeStyle=orthogonalEdgeStyle;rounded=0;orthogonalLoop=1;jettySize=auto;html=1;" edge="1" parent="1" source="ebJpV6IyldLX445FQ9T2-30" target="ebJpV6IyldLX445FQ9T2-32">
          <mxGeometry relative="1" as="geometry" />
        </mxCell>
        <mxCell id="ebJpV6IyldLX445FQ9T2-36" value="" style="edgeStyle=orthogonalEdgeStyle;rounded=0;orthogonalLoop=1;jettySize=auto;html=1;" edge="1" parent="1" source="ebJpV6IyldLX445FQ9T2-30" target="ebJpV6IyldLX445FQ9T2-35">
          <mxGeometry relative="1" as="geometry">
            <Array as="points">
              <mxPoint x="610" y="1680" />
              <mxPoint x="610" y="2040" />
            </Array>
          </mxGeometry>
        </mxCell>
        <mxCell id="ebJpV6IyldLX445FQ9T2-30" value="prime_num &amp;amp;&amp;amp; i &amp;gt; 1" style="rhombus;whiteSpace=wrap;html=1;strokeWidth=2;" vertex="1" parent="1">
          <mxGeometry x="330" y="1620" width="160" height="120" as="geometry" />
        </mxCell>
        <mxCell id="ebJpV6IyldLX445FQ9T2-38" value="" style="edgeStyle=orthogonalEdgeStyle;rounded=0;orthogonalLoop=1;jettySize=auto;html=1;" edge="1" parent="1" source="ebJpV6IyldLX445FQ9T2-32" target="ebJpV6IyldLX445FQ9T2-35">
          <mxGeometry relative="1" as="geometry" />
        </mxCell>
        <mxCell id="ebJpV6IyldLX445FQ9T2-32" value="แสดงจำนวนเฉพาะ" style="shape=parallelogram;perimeter=parallelogramPerimeter;whiteSpace=wrap;html=1;fixedSize=1;strokeWidth=2;" vertex="1" parent="1">
          <mxGeometry x="350" y="1850" width="120" height="60" as="geometry" />
        </mxCell>
        <mxCell id="ebJpV6IyldLX445FQ9T2-34" value="T" style="text;html=1;align=center;verticalAlign=middle;resizable=0;points=[];autosize=1;strokeColor=none;fillColor=none;" vertex="1" parent="1">
          <mxGeometry x="355" y="1748" width="30" height="30" as="geometry" />
        </mxCell>
        <mxCell id="ebJpV6IyldLX445FQ9T2-40" value="" style="edgeStyle=orthogonalEdgeStyle;rounded=0;orthogonalLoop=1;jettySize=auto;html=1;" edge="1" parent="1" source="ebJpV6IyldLX445FQ9T2-35" target="ebJpV6IyldLX445FQ9T2-39">
          <mxGeometry relative="1" as="geometry" />
        </mxCell>
        <mxCell id="ebJpV6IyldLX445FQ9T2-35" value="i --" style="whiteSpace=wrap;html=1;strokeWidth=2;" vertex="1" parent="1">
          <mxGeometry x="350" y="2010" width="120" height="60" as="geometry" />
        </mxCell>
        <mxCell id="ebJpV6IyldLX445FQ9T2-37" value="F" style="text;html=1;align=center;verticalAlign=middle;resizable=0;points=[];autosize=1;strokeColor=none;fillColor=none;" vertex="1" parent="1">
          <mxGeometry x="495" y="1638" width="30" height="30" as="geometry" />
        </mxCell>
        <mxCell id="ebJpV6IyldLX445FQ9T2-44" value="" style="edgeStyle=orthogonalEdgeStyle;rounded=0;orthogonalLoop=1;jettySize=auto;html=1;" edge="1" parent="1" source="ebJpV6IyldLX445FQ9T2-39" target="ebJpV6IyldLX445FQ9T2-43">
          <mxGeometry relative="1" as="geometry" />
        </mxCell>
        <mxCell id="ebJpV6IyldLX445FQ9T2-39" value="i &amp;gt;= 2" style="rhombus;whiteSpace=wrap;html=1;strokeWidth=2;" vertex="1" parent="1">
          <mxGeometry x="370" y="2140" width="80" height="80" as="geometry" />
        </mxCell>
        <mxCell id="ebJpV6IyldLX445FQ9T2-46" value="" style="edgeStyle=orthogonalEdgeStyle;rounded=0;orthogonalLoop=1;jettySize=auto;html=1;" edge="1" parent="1" source="ebJpV6IyldLX445FQ9T2-43" target="ebJpV6IyldLX445FQ9T2-45">
          <mxGeometry relative="1" as="geometry" />
        </mxCell>
        <mxCell id="ebJpV6IyldLX445FQ9T2-43" value="เว้นบรรทัด" style="shape=parallelogram;perimeter=parallelogramPerimeter;whiteSpace=wrap;html=1;fixedSize=1;strokeWidth=2;" vertex="1" parent="1">
          <mxGeometry x="350" y="2310" width="120" height="60" as="geometry" />
        </mxCell>
        <mxCell id="ebJpV6IyldLX445FQ9T2-45" value="end" style="strokeWidth=2;html=1;shape=mxgraph.flowchart.start_1;whiteSpace=wrap;" vertex="1" parent="1">
          <mxGeometry x="360" y="2480" width="100" height="60" as="geometry" />
        </mxCell>
        <mxCell id="ebJpV6IyldLX445FQ9T2-47" value="F" style="text;html=1;align=center;verticalAlign=middle;resizable=0;points=[];autosize=1;strokeColor=none;fillColor=none;" vertex="1" parent="1">
          <mxGeometry x="415" y="2218" width="30" height="30" as="geometry" />
        </mxCell>
        <mxCell id="ebJpV6IyldLX445FQ9T2-48" value="" style="shape=waypoint;sketch=0;fillStyle=solid;size=6;pointerEvents=1;points=[];fillColor=none;resizable=0;rotatable=0;perimeter=centerPerimeter;snapToPoint=1;" vertex="1" parent="1">
          <mxGeometry x="400" y="820" width="20" height="20" as="geometry" />
        </mxCell>
        <mxCell id="ebJpV6IyldLX445FQ9T2-49" style="edgeStyle=orthogonalEdgeStyle;rounded=0;orthogonalLoop=1;jettySize=auto;html=1;exitX=1;exitY=0.5;exitDx=0;exitDy=0;entryX=0.7;entryY=0.95;entryDx=0;entryDy=0;entryPerimeter=0;" edge="1" parent="1" source="ebJpV6IyldLX445FQ9T2-39" target="ebJpV6IyldLX445FQ9T2-48">
          <mxGeometry relative="1" as="geometry">
            <Array as="points">
              <mxPoint x="720" y="2180" />
              <mxPoint x="720" y="830" />
            </Array>
          </mxGeometry>
        </mxCell>
        <mxCell id="ebJpV6IyldLX445FQ9T2-50" value="T" style="text;html=1;align=center;verticalAlign=middle;resizable=0;points=[];autosize=1;strokeColor=none;fillColor=none;" vertex="1" parent="1">
          <mxGeometry x="445" y="2128" width="30" height="30" as="geometry" />
        </mxCell>
      </root>
    </mxGraphModel>
  </diagram>
</mxfile>
